<svg xmlns="http://www.w3.org/2000/svg" style="display:none">
  <symbol id="arrow" viewBox="0 0 67 52"><g clip-path="url(#a)"><path d="M13.281 40.828c2.083-13.677 13.447-24.802 25.022-24.785.067.349.218.79.109 1.128-1.866 5.753.622 10.219 4.654 14.175 3.103 3.123 6.687 5.671 10.971 6.968 1.226.334 2.452.668 3.783.75 4.874.383 7.437-2.22 7.194-6.98-.16-3.203-1.6-5.879-3.587-8.33-3.39-4.262-7.825-7.466-13.032-9.683a203 203 0 0 1-3.563-1.425c5.054-5.472 11.895-6.693 18.44-8.881-1.154-.07-2.296-.313-3.46-.212-6.022.926-11.653 2.74-16.174 6.776-1.315 1.128-2.521 1.917-4.473 1.798-7.545-.375-13.866 2.517-19.164 7.629a39 39 0 0 0-9.096 13.334 114 114 0 0 1-1.97 4.538 7872 7872 0 0 0-6.643-10.759c-.271.07-.548.226-.82.296-.13.682-.449 1.525-.22 2.143 1.064 2.998 2.127 5.997 3.373 8.92 1.173 2.66 2.529 5.245 3.702 7.905 1.178 2.574 2.56 3.262 4.372 1.302 3.143-3.345 5.947-6.97 8.84-10.59.385-.493.088-1.46.047-2.24-.897.118-2.045-.038-2.61.445-1.978 1.777-3.607 3.662-5.695 5.778m28.67-24.735c8.603 1.993 15.103 6.359 18.993 14.102.787 1.688 1.37 3.794-.305 4.986-1.117.794-3.256.836-4.754.572-5.713-1.212-9.96-4.578-13.428-9.017-2.389-3.166-2.987-6.48-.507-10.643"/></g><defs><clipPath id="a"><path d="M66.809 3.904 2.929 0 0 47.91l63.88 3.905z"/></clipPath></defs></symbol>
  <symbol id="ArrowSlider" viewBox="0 0 17 15"><path d="M.293 8.071a1 1 0 0 1 0-1.414L6.657.293A1 1 0 0 1 8.07 1.707L2.414 7.364l5.657 5.657a1 1 0 1 1-1.414 1.414zM17 8.364H1v-2h16z"/></symbol>
  <symbol id="ArrowSliderRight" viewBox="0 0 17 15"><path d="M16.707 8.071a1 1 0 0 0 0-1.414L10.343.293A1 1 0 1 0 8.93 1.707l5.657 5.657-5.657 5.657a1 1 0 0 0 1.414 1.414zM0 8.364h16v-2H0z"/></symbol>
  <symbol id="Arrowtiny" viewBox="0 0 41 15"><path d="M40.707 8.071a1 1 0 0 0 0-1.414L34.343.293a1 1 0 1 0-1.414 1.414l5.657 5.657-5.657 5.657a1 1 0 0 0 1.414 1.414zM0 8.364h40v-2H0z"/></symbol>
  <symbol id="basket-minus-outline" viewBox="0 0 40 40"><g clip-path="url(#a)"><path d="M1.875 16h36.25v-2.667H1.875zm35.458-.792v1.17H40v-1.17zM33.03 37.333H6.971V40h26.058zM2.667 16.38v-1.171H0v1.17zm5.056 21.418A47.9 47.9 0 0 1 2.667 16.38H0c0 7.85 1.827 15.592 5.339 22.613zm-.752-.464c.32 0 .61.182.752.464l-2.384 1.195A1.83 1.83 0 0 0 6.97 40zm25.306.464a.84.84 0 0 1 .752-.464V40a1.82 1.82 0 0 0 1.632-1.008zm5.056-21.418a47.9 47.9 0 0 1-5.056 21.418l2.384 1.195A50.56 50.56 0 0 0 40 16.379zm.792-.38a.79.79 0 0 1-.792-.791H40a1.874 1.874 0 0 0-1.875-1.875zm-36.25-2.666A1.875 1.875 0 0 0 0 15.208h2.667a.79.79 0 0 1-.792.792zm8.602 2.019 8-13.333-2.29-1.371-8 13.333zM21.523 2.019l8 13.333 2.288-1.37-8-13.334zm-8.19 24.648h13.334V24H13.333z"/></g><defs><clipPath id="a"><path d="M0 0h40v40H0z"/></clipPath></defs></symbol>
  <symbol id="dog-lapa" viewBox="0 0 55 56"><path d="M26.652 27.235c-4.524 1.004-4.932 5.273-8.504 9.834-5.128 6.67-3.297 11.326.548 11.63 3.846.303 6.324-4.388 10.434-4.926 4.012-.791 7.793 2.76 11.28 1.016 3.538-1.617 3.905-6.748-2.924-11.227-4.578-2.926-6.29-6.9-10.834-6.327M14.078 25.63c2.964 3.246 3.925 7.479 2.167 9.446-1.879 2.017-5.788 1.018-8.752-2.228-2.964-3.245-3.925-7.478-2.167-9.445 1.88-2.017 5.788-1.018 8.752 2.227m22.698-3.73c-1.93 3.94-1.463 8.08.914 9.332s5.915-.816 7.845-4.758c1.93-3.941 1.463-8.08-.914-9.332-2.503-1.201-6.04.868-7.845 4.757m-13.522-5.991c1.573 4.372.526 8.769-2.162 9.735-2.689.966-6.14-1.864-7.713-6.237s-.526-8.77 2.163-9.735c2.688-.966 6.139 1.864 7.712 6.237m2.598-.973c-.105 4.412 2.101 7.863 4.794 7.87 2.814-.044 5.12-3.54 5.273-7.83.106-4.412-2.1-7.863-4.793-7.87-2.74-.128-5.168 3.418-5.274 7.83"/></symbol>
  <symbol id="dog" viewBox="0 0 32 32"><path d="M6.467 29.333v-12.8l-.367-.366a2.55 2.55 0 0 1-.567-.867 2.8 2.8 0 0 1-.2-1.033A2.63 2.63 0 0 1 6.1 12.4L10.467 8H15.8l5.333-5.333L23.867 5.4a9.7 9.7 0 0 1 2.066 3.016A8.9 8.9 0 0 1 26.667 12a8.9 8.9 0 0 1-.734 3.584 9.7 9.7 0 0 1-2.066 3.016l-2.734 2.733v8zm2.666-2.666h9.334v-6.434l3.5-3.5a7.2 7.2 0 0 0 1.5-2.166Q24 13.367 24 12q0-1.333-.55-2.533A7.7 7.7 0 0 0 21.966 7.3l-.834-.867-4.233 4.234h-5.333l-.767.766 2.233 2.234a6.8 6.8 0 0 1 1.451 2.149 6.5 6.5 0 0 1 .516 2.55 6.7 6.7 0 0 1-.5 2.551 6.6 6.6 0 0 1-1.467 2.183l-3.9-3.9z"/></symbol>
  <symbol id="email" viewBox="0 0 32 32"><path d="M16 29.333q-2.733 0-5.167-1.05a13.5 13.5 0 0 1-4.249-2.867 13.5 13.5 0 0 1-2.867-4.25A12.9 12.9 0 0 1 2.667 16q0-2.766 1.05-5.183a13.6 13.6 0 0 1 2.867-4.233 13.5 13.5 0 0 1 4.25-2.868q2.433-1.05 5.166-1.05 2.766 0 5.183 1.05t4.233 2.868a13.6 13.6 0 0 1 2.867 4.233q1.05 2.417 1.05 5.183v1.933q0 1.967-1.349 3.35-1.35 1.383-3.317 1.384a4.8 4.8 0 0 1-2.234-.534 5 5 0 0 1-1.7-1.4A6.63 6.63 0 0 1 16 22.667q-2.766 0-4.716-1.951-1.95-1.95-1.95-4.716t1.95-4.717T16 9.333t4.717 1.95T22.667 16v1.933q0 .967.6 1.516.6.55 1.4.551.8 0 1.4-.55t.6-1.517V16q0-4.367-3.151-7.517T16 5.333q-4.367 0-7.517 3.15T5.333 16t3.15 7.516T16 26.666h6.667v2.667zM16 20q1.666 0 2.833-1.167Q20 17.667 20 16t-1.167-2.833T16 12t-2.833 1.167Q12 14.333 12 16q0 1.666 1.167 2.833Q14.333 20 16 20"/></symbol>
  <symbol id="foodicon" viewBox="0 0 72 48"><path d="M68.055 20c-.079-2.988-3.008-5.96-8.877-8 .401-.82 0-1.088 0-2 0-3.534-3.072-7-6.904-7-.864 0-1.167.709-1.973 1-1.29-1.454-3.652-2-5.917-2-1.027 0-2.032-.347-2.96 0-1.613-1.337-3.621-2-5.917-2-3.095 0-6.352 1.815-7.89 4-3.64-.398-6.65.394-7.891 3-3.05.055-5.535 2.305-5.918 5-6.359 2.067-9.78 4.878-9.863 8L0 35v1c0 6.973 16.306 12 36.493 12S72 42.972 72 36zM19.726 9c-.052-.003.052 0 0 0h.986V8c.781-2.072 3.092-3 5.918-3 .398 0 .574-.061.986 0h.987c1.247-2.017 4.081-4 6.904-4 2.132 0 3.53.71 4.931 2l.987 1V3c.867-.377 1.962 0 2.959 0 2.066 0 3.925.637 4.931 2h.986c.78-.34 1.12 0 1.973 0 3.135 0 5.918 2.173 5.918 5 0 .928-.463 1.208-.986 2-.002.002.001.998 0 1-.04.06.041-.059 0 0v1h.986c2.476.342 3.945 1.694 3.945 3 0 .785-.475.647-.986 1-.082.056.072-.044 0 0l-1.973 1 1.973 1c1.112.517.986 1.113.986 2 0 1.322-2.516 3-4.931 3-1.102.377-1.795.692-2.96 1-4.945 1.302-10.812 2-16.766 2-10.186 0-18.727-2.249-21.7-3-.684-.173-.967.006-.985 0-2.707 0-4.932-2.574-4.932-5s2.225-4 4.932-4c-.164-.016.169 0 0 0h.986v-1c-.318-.585-.987-1.361-.987-2-.002.037 0-.038 0 0 .253-2.158 2.426-4 4.932-4m-5.918 5c-.004-.027.004.027 0 0-.006-.042.006.042 0 0 .037.22-.066-.215 0 0 .001.002 0-.002 0 0-3.215.193-5.918 2.993-5.918 6 0 3.103 3.542 5.957 6.905 6 .153.043.456-.134.986 0 3.038.768 11.384 3 21.699 3-.002 0 .001 0 0 0 7.449 0 13.835-.995 19.726-3 2.916-.04 6.904-1.739 6.904-4 0-.278.072-.735 0-1-.215-.793-1.199-1.443-1.973-2 .768-.69.986-1.132.986-2 0-.062.005-.938 0-1-.003-.052.007.05 0 0-.008-.06.012.059 0 0-.011-.056.015.056 0 0-.003-.013.004.014 0 0 2.37 1.417 3.946 2.428 3.946 4 0 4.77-13.082 10-31.562 10S4.932 24.77 4.932 20c0-2.47 3.336-4.135 8.876-6m21.699 33C16.76 47 1.12 42.015.987 36l3.945-13c3.032 5.088 14.874 9 30.575 9s28.53-3.91 31.562-9l3.945 13c-.135 6.016-16.76 11-35.507 11"/><path d="M46.356 36c0-1.694-1.32-3-2.959-3-1.585 0-2.88 1.379-2.959 3h-9.863c-.078-1.621-1.372-3-2.959-3-1.636 0-2.959 1.306-2.959 3 0 .989.284 1.438.987 2-.703.562-.986 2.012-.986 3 0 1.694 1.322 3 2.958 3 1.587 0 2.882-1.379 2.96-3h9.862c.079 1.621 1.374 3 2.96 3 1.638 0 2.958-1.306 2.958-3 0-.987-.285-2.438-.986-3 .701-.562.986-1.01.986-2m-.986 5c0 .987-1.018 2-1.973 2-.952 0-1.972-1.013-1.972-2-.024.118 0-.118 0 0v-1H29.589v1c0-.118.023.118 0 0 0 .987-1.018 2-1.973 2-.953 0-1.972-1.013-1.972-2 0-.985 1.019-2 1.972-2v-1c-.953 0-1.972-1.015-1.972-2 0-.987 1.019-2 1.972-2 .955 0 1.973 1.013 1.973 2 0 .12.023-.118 0 0v1h11.836v-1c-.024-.12 0 .118 0 0 0-.987 1.02-2 1.972-2 .955 0 1.973 1.013 1.973 2 0 .985-1.018 2-1.973 2v1c.955 0 1.973 1.014 1.973 2"/></symbol>
  <symbol id="instagram" viewBox="0 0 40 40"><path d="M20 26.667a6.667 6.667 0 1 0 0-13.334 6.667 6.667 0 0 0 0 13.334"/><path d="M5 26.667V13.333A8.333 8.333 0 0 1 13.333 5h13.334A8.333 8.333 0 0 1 35 13.333v13.334A8.333 8.333 0 0 1 26.667 35H13.333A8.333 8.333 0 0 1 5 26.667M29.167 10.85l.017-.018"/></symbol>
  <symbol id="menu" viewBox="0 0 24 24"><path d="M22 18.005c0 .55-.446.995-.995.995h-8.01a.995.995 0 1 1 0-1.99h8.01c.55 0 .995.445.995.995M22 12c0 .55-.446.995-.995.995H2.995a.995.995 0 1 1 0-1.99h18.01c.55 0 .995.446.995.995m-.995-5.01a.995.995 0 1 0 0-1.99H8.995a.995.995 0 0 0 0 1.99z"/></symbol>
  <symbol id="paw-1" viewBox="0 0 53 53"><path d="M24.946 25.84c2.745 3.752 6.712 1.968 12.212 3.124 8.032 1.546 11.19-2.38 9.714-6.196-1.429-3.66-6.451-3.768-8.907-7.098s-1.14-8.555-4.14-11.025-7.507-.342-8.318 8.15c-.493 5.819-3.159 9.245-.561 13.045m4.266 11.047c1.161-4.11 4.3-6.984 6.814-6.09s3.734 4.924 2.473 9.236c-1.161 4.11-4.3 6.984-6.814 6.09s-3.587-4.97-2.473-9.236M16.035 18.54c4.153.027 7.412-2.372 7.344-5.232s-3.474-5.161-7.58-5.034c-4.153-.027-7.412 2.372-7.344 5.233.022 2.705 3.427 5.006 7.58 5.033m.325 15.263c3.108-3.345 7.362-4.539 9.455-2.523 2.093 2.017 1.298 6.468-1.81 9.813s-7.363 4.539-9.456 2.523c-1.943-2.065-1.25-6.315 1.811-9.813m-1.218-2.199c3.984-2.108 6.317-5.853 4.992-8.595-1.278-2.59-5.546-3.057-9.68-.901-3.983 2.108-6.316 5.854-4.992 8.595 1.279 2.59 5.697 3.01 9.68.901"/></symbol>
  <symbol id="Paw-2" viewBox="0 0 55 56"><path d="M26.652 27.235c-4.524 1.004-4.932 5.273-8.504 9.834-5.128 6.67-3.297 11.326.548 11.63 3.846.303 6.324-4.388 10.434-4.926 4.012-.791 7.793 2.76 11.28 1.016 3.538-1.617 3.905-6.748-2.924-11.227-4.578-2.926-6.29-6.9-10.834-6.327M14.078 25.63c2.964 3.246 3.925 7.479 2.167 9.446-1.879 2.017-5.788 1.018-8.752-2.228-2.964-3.245-3.925-7.478-2.167-9.445 1.88-2.017 5.788-1.018 8.752 2.227m22.698-3.73c-1.93 3.94-1.463 8.08.914 9.332s5.915-.816 7.845-4.758c1.93-3.941 1.463-8.08-.914-9.332-2.503-1.201-6.04.868-7.845 4.757m-13.522-5.991c1.573 4.372.526 8.769-2.162 9.735-2.689.966-6.14-1.864-7.713-6.237s-.526-8.77 2.163-9.735c2.688-.966 6.139 1.864 7.712 6.237m2.598-.973c-.105 4.412 2.101 7.863 4.794 7.87 2.814-.044 5.12-3.54 5.273-7.83.106-4.412-2.1-7.863-4.793-7.87-2.74-.128-5.168 3.418-5.274 7.83"/></symbol>
  <symbol id="Paw-3" viewBox="0 0 59 60"><path d="M28.797 28.44c-2.47-4.004-6.6-3.004-12.08-4.904-7.983-2.73-11.633.595-10.517 4.418 1.016 3.74 6.28 4.657 8.177 8.338 2.148 3.572.191 8.326 3.05 11.217 2.759 2.807 7.568 1.58 9.358-6.517 1.16-5.425 4.33-8.356 2.012-12.552M26.17 16.913c-1.608 3.906-5.064 5.932-7.622 4.732s-3.313-5.504-1.606-9.325c1.607-3.906 4.964-6.017 7.622-4.732s3.212 5.419 1.605 9.325M37.373 37.14c-4.236-.741-7.778.989-8.008 3.783s3.054 5.564 7.265 6.127c4.236.742 7.779-.988 8.009-3.782s-3.055-5.564-7.266-6.128m1.417-15.085c-3.35 2.695-7.693 2.974-9.754.606s-.915-6.607 2.435-9.301 7.693-2.974 9.754-.605c2.06 2.368.914 6.606-2.435 9.3m1.34 1.892c-4.217 1.266-6.637 4.514-5.508 7.333 1.13 2.819 5.371 4.063 9.588 2.797s6.637-4.514 5.508-7.333c-1.13-2.819-5.371-4.063-9.588-2.797"/></symbol>
  <symbol id="people" viewBox="0 0 32 32"><path d="M11.384 9.714c0-1.125.446-2.204 1.24-3a4.23 4.23 0 0 1 5.99 0 4.246 4.246 0 0 1 0 6 4.23 4.23 0 0 1-5.99 0 4.25 4.25 0 0 1-1.24-3m4.235-6.666A6.65 6.65 0 0 0 10.913 5a6.67 6.67 0 0 0 0 9.428 6.65 6.65 0 0 0 9.412 0 6.67 6.67 0 0 0 0-9.428 6.65 6.65 0 0 0-4.706-1.952M5.333 22.442c0-.965.383-1.89 1.064-2.572a3.63 3.63 0 0 1 2.567-1.065h13.31c.963 0 1.887.383 2.567 1.065a3.64 3.64 0 0 1 1.064 2.572v.273q-.004.17-.024.339c-.025.21-.07.494-.158.831a6.75 6.75 0 0 1-1.209 2.445c-1.415 1.82-4.079 3.384-8.895 3.384s-7.478-1.563-8.895-3.384a6.75 6.75 0 0 1-1.21-2.445 6 6 0 0 1-.177-1.088l-.002-.082v-.027l-.002-.01zm2.42.215v.015q.026.306.103.604c.11.421.33.991.776 1.564.853 1.096 2.728 2.45 6.987 2.45s6.135-1.354 6.987-2.448a4.3 4.3 0 0 0 .774-1.566q.079-.297.105-.604v-.23a1.214 1.214 0 0 0-1.21-1.213H8.965a1.21 1.21 0 0 0-1.21 1.213z"/></symbol>
  <symbol id="phone" viewBox="0 0 32 32"><path d="M27.833 29.333q-5.2 0-9.782-1.966-4.584-1.968-8-5.383-3.418-3.417-5.4-8Q2.667 9.4 2.667 4.167q-.035-.6.4-1.051.433-.45 1.066-.45h5.2q.6 0 1.034.45.432.45.433 1.084 0 1.467.2 2.767t.633 2.466q.167.367.067.75-.1.384-.4.717l-3.333 3.333q1.432 2.933 4.066 5.567 2.634 2.633 5.667 4.2l3.333-3.333q.3-.3.7-.4t.8.066q1.233.4 2.55.616 1.317.218 2.717.218.633 0 1.084.466.45.467.45 1.134v5.1q0 .6-.434 1.033a1.45 1.45 0 0 1-1.067.433m-7.666-4q1.5.567 3.133.9t3.367.434V23.8a24 24 0 0 1-2.116-.233 15 15 0 0 1-2.151-.5zm6.5-9.333q0-4.467-3.1-7.567T16 5.333V2.667q2.767 0 5.2 1.049 2.433 1.05 4.233 2.85t2.85 4.234 1.05 5.2zm-5.334 0q0-2.2-1.566-3.767T16 10.667V8q3.333 0 5.667 2.333T24 16zM6.667 11.767l2.2-2.234A21 21 0 0 1 8.416 7.5a20 20 0 0 1-.25-2.167h-2.8q.067 1.6.4 3.2.335 1.6.9 3.234"/></symbol>
  <symbol id="ph_facebook-logo" viewBox="0 0 40 40"><path d="M36.25 20A16.25 16.25 0 1 0 20 36.25 16.265 16.265 0 0 0 36.25 20m-15 13.688V23.75H25a1.25 1.25 0 0 0 0-2.5h-3.75V17.5a2.5 2.5 0 0 1 2.5-2.5h2.5a1.25 1.25 0 0 0 0-2.5h-2.5a5.016 5.016 0 0 0-5 5v3.75H15a1.25 1.25 0 0 0 0 2.5h3.75v9.938a13.75 13.75 0 1 1 2.5 0"/></symbol>
  <symbol id="service1" viewBox="0 0 96 96"><path d="M63.3 28.088c-.253-1.113-.946-1.95-1.9-2.294-.067-.025-.139-.028-.208-.047.683-3.107 2.61-14.403-3.7-21.013C53.833.904 48.127-.613 40.538.224a1.3 1.3 0 0 0-.449-.095C34.13-.063 29.569 1.58 26.578 5.008c-5.859 6.712-3.737 18.04-3.126 20.725-.09.023-.183.029-.27.06-.955.346-1.647 1.182-1.901 2.295-.227.992-.1 2.138.355 3.225.834 1.995 2.523 3.27 4.144 3.27q.26 0 .517-.046c1.376 4.072 3.67 7.458 7.46 9.537v4.174h-1.969v11.775h21.006V48.248h-1.97V44.1c3.798-2.076 6.094-5.472 7.468-9.561q.254.043.51.043c1.62 0 3.31-1.274 4.145-3.268.455-1.088.58-2.234.355-3.226m-39.859 2.57c-.314-.752-.411-1.553-.265-2.195.117-.507.374-.868.707-.989a.9.9 0 0 1 .294-.048c.189 0 .399.053.615.152.222 1.797.538 3.54.977 5.195-.742-.014-1.78-.808-2.328-2.115m28.495 19.394c-1.928 1.886-5.521 3.157-9.646 3.157-4.124 0-7.717-1.271-9.645-3.157h2.08c.536 0 .97-.404.97-.902v-4.176c1.89.723 4.086 1.175 6.644 1.295 2.518-.12 4.68-.564 6.546-1.274v4.155c0 .498.434.902.97.902zm5.952-23.429a51 51 0 0 1-.207 1.642 37 37 0 0 1-.775 3.852c-.118.458-.252.896-.389 1.331-1.188 3.789-3.06 6.74-5.95 8.628-.428.278-.89.521-1.362.753-1.9.935-4.153 1.51-6.866 1.639-2.706-.129-4.959-.692-6.86-1.61a13 13 0 0 1-1.448-.8c-2.897-1.89-4.774-4.836-5.964-8.616a27 27 0 0 1-.39-1.332 37 37 0 0 1-.776-3.843 68 68 0 0 1-.576-6.312c.228-1.323.56-2.42.956-3.32a14.7 14.7 0 0 0 3.399-1.003c.239.307.645.502 1.058.473.215-.01 3.071-.162 6.09-1.264q-.022.192.027.388c.13.505.609.865 1.167.877.26.008 5.392.066 8.559-3.304 1.222 2.724 3.966 7.185 9.562 9.985l.834 1.07c-.026.26-.06.51-.09.766m3.25 4.035c-.544 1.304-1.58 2.096-2.32 2.114.436-1.655.75-3.397.972-5.194.216-.1.425-.152.614-.152q.157 0 .292.048c.458.166.64.69.709.989.146.642.049 1.443-.267 2.195m-21.047 2.349v-2.529c0-.498.434-.902.969-.902s.97.404.97.902v2.324h1.49c.536 0 .97.404.97.902s-.434.902-.97.902h-1.71c-.948 0-1.72-.717-1.72-1.6m-4.633-5.8c0 .97-.846 1.756-1.888 1.756-1.043 0-1.888-.786-1.888-1.756s.845-1.757 1.888-1.757 1.888.787 1.888 1.757m17.44 0c0 .97-.844 1.756-1.887 1.756s-1.888-.786-1.888-1.756.845-1.757 1.888-1.757 1.888.787 1.888 1.757m-5.862 11.356c0 1.456-2.451 1.975-4.746 1.975-2.294 0-4.745-.52-4.745-1.975 0-.498.434-.902.97-.902.432 0 .798.263.923.627.324.178 1.344.446 2.852.446 1.509 0 2.529-.268 2.853-.447.125-.363.491-.626.924-.626.535 0 .97.404.97.902m48.638 28.131a2.42 2.42 0 0 0-1.229-.991 2.16 2.16 0 0 0-.285-1.488 2.42 2.42 0 0 0-1.228-.991c.08-.496 0-1.018-.286-1.488s-.728-.8-1.228-.989a2.16 2.16 0 0 0-.284-1.488 2.46 2.46 0 0 0-1.506-1.09 2.64 2.64 0 0 0-1.89.22l-.982.52a2.8 2.8 0 0 0-.738-.755v-.986h5.493c.536 0 .97-.404.97-.903 0-.498-.434-.902-.97-.902H86.02v-.901h5.493c.536 0 .97-.405.97-.903 0-.497-.434-.901-.97-.901H86.02v-.902h5.493c.536 0 .97-.404.97-.902s-.434-.902-.97-.902H86.02v-.902h5.493c.536 0 .97-.404.97-.902s-.434-.902-.97-.902H86.02l.006-.902h5.487c.536 0 .97-.404.97-.902s-.434-.902-.97-.902h-5.487c-1.09 0-1.945.925-1.945 2.105v4.345c-.083-1.025-.491-2.054-1.211-2.94-1.771-2.183-4.805-2.842-6.759-1.468-1.018.716-1.535 1.845-1.557 3.07-1.272-.315-2.582-.163-3.601.553-.982.69-1.558 1.809-1.58 3.069-.018 1.166.424 2.367 1.247 3.382.823 1.013 1.944 1.738 3.156 2.04.405.1.81.15 1.207.15.883 0 1.719-.247 2.397-.723.064-.046.11-.105.17-.154l3.041 3.393-1.099 2.202q-.126.202-.228.417l-6.392 3.373L61.963 50.69a5.8 5.8 0 0 0-.944-1.08 3.9 3.9 0 0 0-2.377-1.347 6.55 6.55 0 0 0-2.94-.228v12.088c.237.068.456.168.647.301.357.25.619.601.724 1.015l.245.953 4.524 17.638v-7.554l3.634 5.552c1.154 1.763 3.175 2.742 5.25 2.742 1.028 0 2.07-.24 3.025-.745l11.64-6.145c.048-.025.085-.06.133-.087.091.005.182.017.274.017.757 0 1.525-.177 2.23-.55l2.188-1.156.133.15c.442.492 1.222.575 1.772.189l.4-.282.423-.296.4-.281c.402-.282.554-.763.445-1.228l.95-.503a2.33 2.33 0 0 0 1.17-1.4 2.16 2.16 0 0 0-.235-1.758m-5.642-4.165.178-.094a.6.6 0 0 1 .418-.048.54.54 0 0 1 .333.24c.15.246.057.56-.207.7l-.177.094-1.277.675-1.083.573a.6.6 0 0 1-.418.048.54.54 0 0 1-.332-.241.495.495 0 0 1 .206-.7l1-.528zm-3.112-1.405.024-.048c.018-.036.024-.074.04-.11.018-.042.03-.085.046-.128l1.21-.64.456-.241a.6.6 0 0 1 .418-.048.54.54 0 0 1 .334.24.47.47 0 0 1 .005.477.5.5 0 0 1-.213.224l-.696.368-.988.522-.853.45a.6.6 0 0 1-.344.054zm-11.1-4.92c-.468.326-1.064.247-1.379.168-.648-.161-1.29-.586-1.76-1.166s-.734-1.27-.724-1.895c.005-.302.083-.858.552-1.187.234-.164.524-.242.837-.242.76 0 1.666.457 2.301 1.24.898 1.106.976 2.517.173 3.082m2.019-4.621c-.897-1.106-.976-2.517-.172-3.082.235-.164.522-.243.837-.243.76 0 1.665.458 2.301 1.241.471.58.735 1.27.725 1.894-.005.303-.084.858-.552 1.187-.468.327-1.064.247-1.378.169-.65-.162-1.29-.587-1.761-1.166m2.496 7.246c-.442-.545-.326-1.32.26-1.732.585-.411 1.418-.303 1.86.242.155.19.218.41.24.63-.363.22-.669.516-.86.896l-.21.422c-.476.078-.98-.075-1.29-.458m7.621 12.393-.887.468c-1.238.658-2.825.25-3.532-.904l-2.396-3.922a2.25 2.25 0 0 1-.245-1.831l.01-.022.319-.638 2.369-4.748c.068-.136.254-.224.485-.245.17-.015.362.003.561.09.2.086.338.212.436.343.022.03.048.057.064.088.082.15.102.3.046.414l-1.984 3.962-.396.79c-.038.075-.046.154-.06.233-.07.39.125.79.53.965.132.057.271.084.407.084.139 0 .271-.035.395-.087v4.284c0 .498.435.902.97.902s.97-.404.97-.902V67.42l2.338 2.61.598.666zm1.774-4.075a.6.6 0 0 1-.418.048.54.54 0 0 1-.332-.241.495.495 0 0 1 .206-.7l1.23-.65 1.13-.597.178-.094a.6.6 0 0 1 .417-.048.54.54 0 0 1 .332.24c.15.247.058.56-.205.7l-.177.094-1.048.554zm4.31.828a.52.52 0 0 1-.259.308h-.001l-.455.24-.539.286-1.54.816a.57.57 0 0 1-.366.052.55.55 0 0 1-.387-.245.496.496 0 0 1 .207-.7l1.459-.771.393-.208.685-.362a.6.6 0 0 1 .27-.067l.044.005q.053.003.103.014c.142.036.26.122.334.243a.48.48 0 0 1 .052.389m-32.387 26.11-.54-11.683a.5.5 0 0 0-.015-.092l-5.282-20.594a.5.5 0 0 0-.114-.21c-.144-.17-.394-.28-.674-.28H29.552c-.28 0-.53.111-.673.28a.5.5 0 0 0-.115.209l-4.639 18.09-.585-.308-.136-.071c-.152-.078-.305-.141-.458-.205l4.317-16.832.18-.706.064-.246a1.78 1.78 0 0 1 .725-1.014c.19-.133.41-.233.647-.301V48.079c-2.262-.682-4.843-.105-6.51 1.663L1.526 71.84C.369 73.066-.169 74.692.047 76.31c.216 1.62 1.166 3.075 2.61 4l11.957 7.667c.373.239.768.42 1.172.572a6.4 6.4 0 0 0 1.73 1.31l4.212 2.184.632.327.378.196.223.115c.01.006.022.007.033.013l-.065 1.392-.061 1.293a.5.5 0 0 0 .166.385.9.9 0 0 0 .635.236H60.91a.9.9 0 0 0 .635-.236.5.5 0 0 0 .167-.385zM15.309 74.547l7.43-7.877v12.46a7 7 0 0 0-.733-.227c-.143-.11-.268-.234-.424-.334zm14.55 10.682a.346.346 0 0 1-.45.12l-4.407-2.285c-.245-.126-.532-.118-.79-.025a1.1 1.1 0 0 0-.574.448.85.85 0 0 0-.087.687.92.92 0 0 0 .46.543l.004.002 5.276 2.735a.3.3 0 0 1 .155.185.28.28 0 0 1-.028.233.33.33 0 0 1-.198.145.35.35 0 0 1-.25-.026l-5.156-2.673-.124-.065a.9.9 0 0 0-.341-.088 1.1 1.1 0 0 0-.61.148q-.028.013-.053.027a1.05 1.05 0 0 0-.36.337.85.85 0 0 0-.088.687c.06.197.2.359.378.477.03.02.05.05.083.066l.04.02.045.024.469.243 3.853 1.997a.3.3 0 0 1 .156.186.28.28 0 0 1-.028.232.35.35 0 0 1-.448.119l-3.565-1.847-.483-.25-.155-.08-.268-.14-.364-.188-.066-.034c-.307-.159-.777-.098-1.076.076a.89.89 0 0 0-.456.787.85.85 0 0 0 .16.462c.084.123.196.23.337.304l1.003.52.632.327.253.131.383.199 1.105.573a.3.3 0 0 1 .155.184.3.3 0 0 1-.028.232.346.346 0 0 1-.449.12l-.815-.422-.35-.182-.286-.148-.631-.327-2.308-1.196-1.055-.547a4.35 4.35 0 0 1-2-2.107c-.526-1.205-.466-2.522.157-3.524a4.6 4.6 0 0 1 3.847-2.12c.659 0 1.345.153 2.022.487.02.01.04.015.059.025l.194.102.334.175.586.307.347.183 5.724 3.002a.3.3 0 0 1 .156.185.28.28 0 0 1-.027.232m23.97-4.473c-.029 1.585-1.672 2.276-2.51 1.053l-.843-1.23a7.2 7.2 0 0 1-1.006 2.039c.003.097.014.192.014.29 0 4.088-3.22 7.403-7.194 7.403s-7.193-3.315-7.193-7.403c0-.098.01-.193.014-.29a7.2 7.2 0 0 1-1.008-2.038l-.842 1.229c-.838 1.224-2.481.532-2.51-1.053a44 44 0 0 0-.094-2.26c-.183-2.645 3.686-3.885 5.43-4.309 1.551-1.037 3.752-1.504 6.203-1.504 2.45 0 4.652.467 6.203 1.504 1.744.424 5.613 1.664 5.43 4.308a45 45 0 0 0-.095 2.261m-14.486 5.491c0-1.114 1.32-2.017 2.947-2.017s2.948.904 2.948 2.017c0 1.114-1.32 2.017-2.948 2.017s-2.947-.903-2.947-2.017"/></symbol>
  <symbol id="service2" viewBox="0 0 96 96"><path d="M67.245 57.39c-2.245-.442-4.466 1.023-5.405 3.563a7.3 7.3 0 0 0-.376 1.52 25.8 25.8 0 0 0 6.09-5.022zm2.083-24.61c4.21-3.36 5.402-10.27 2.663-15.432s-8.372-6.624-12.581-3.265c-4.21 3.36-5.402 10.269-2.663 15.431 2.738 5.163 8.371 6.625 12.58 3.265m16.693 2.816c-3.933-5.973-9.275-6.042-12.226-3.605-2.95 2.435-2.734 8.622-.27 12.776.111.229.23.467.347.703.849-3.16.968-5.452.97-5.484.086-2.68 1.859-4.773 4.036-4.773q.076 0 .151.004c2.228.1 3.973 2.404 3.891 5.136v.009l-.002.044c-.066 1.53-.493 7.03-3.2 13.567-.248.6-.538 1.257-.872 1.953a77 77 0 0 1 1.611 4.069l-3.448-.68c-2.332 3.832-5.9 8.179-11.212 11.585L81.21 86.548c.943.957 2.085 1.424 3.22 1.424 1.453 0 2.895-.766 3.895-2.246 1.779-2.637 1.48-6.544-.67-8.726l-3.707-3.765 1.199.237c.371.073.739.091 1.1.065.87.051 1.894-.322 3.154-.86 3.498-1.495 7.464-4.132 6.433-12.165-2.08-10.793-4.447-16.665-9.815-24.917"/><path d="M78.996 53.522c2.91-7.026 3.098-12.841 3.116-13.207.065-2.19-1.327-4.029-3.112-4.109-1.783-.081-3.28 1.623-3.35 3.808-.006.252-.276 5.034-2.638 10.423-2.387 5.397-6.678 11.46-15.366 15.009-1.696.686-2.618 2.928-2.057 5.01.448 1.666 1.713 2.723 3.07 2.723.336 0 .678-.064 1.014-.2 10.622-4.264 16.44-12.442 19.323-19.457M36.403 72.388c1.47.342 3.238.907 3.706 1.515 1.26 1.63 1.874 4.996 3.507 5.232 1.141.164 1.542.134 2.955-.985 1.395-1.106.07-5.415-.263-7.07-.472-2.35.654-4.93.671-5.088.014-.13.984-2.625 3.788-1.678.979.333.405-1.886-1.128-2.996-1.823-1.317-3.142-.703-4.475.58-2.573-2.416-6.605-1.945-8.897-.893a26.7 26.7 0 0 0-.508 5.233 30 30 0 0 0 .644 6.15m6.534-5.212c.599-.5 1.416-.31 1.825.424.409.735.254 1.738-.345 2.239-.601.5-1.418.311-1.827-.424-.408-.735-.254-1.738.347-2.239m-8.322-6.226q-.895.014-1.707-.063a1.7 1.7 0 0 0-.592-.081c-.013 0-.024.006-.037.007-8.246-1.15-10.49-8.8-20.125-.86-2.91-1.049-6.379-3.303-9.006-8.114-.531-.968-1.6-1.221-2.387-.57-.79.65-.999 1.96-.466 2.929 2.5 4.53 5.589 7.183 8.487 8.738-.034.087-.07.19-.105.29-.743 1.37-1.325 3.177-1.703 5.584-.053.352-2.412 18.818 1.293 18.818s4.723-13.97 6.792-15.758c.291.032 5.788 7.096 10.483 6.208 1.1-.21 2.589-1.042 3.83-1.928l2.03 9.972c.23 1.118 1.045 1.878 1.96 1.878q.15 0 .302-.028c1.032-.19 1.774-1.303 1.72-2.581l-.528-12.416a32.5 32.5 0 0 1-.714-6.737c0-1.646.132-3.432.474-5.289m18.035 24.388h-.51L51.1 81.379H39.434l-1.042 3.958h-.51c-.411 0-.745.409-.745.914 0 .504.334.913.744.913h14.77c.41 0 .745-.409.745-.913 0-.505-.334-.914-.745-.914"/></symbol>
  <symbol id="service3" viewBox="0 0 96 96"><path d="m18.693 76.786 3.46-11.635-1.258-3.43c-2.674-.448-4.877-1.79-6.293-3.58l-4.72 15.661-9.28 15.663c-1.259 2.088-.472 4.773 1.73 5.966s5.035.448 6.293-1.64l9.754-16.11c.157-.298.315-.596.315-.894M3.271 44.293c1.448.76 3.38.152 4.184-1.367l7.24-13.973 1.287-.91.644-3.798c.322-1.974 1.287-3.797 2.574-5.315l-8.688 5.315c-.483.304-.805.76-1.127 1.215L1.823 40.192c-.804 1.519-.16 3.341 1.448 4.1m27.744-28.067c4.895 0 8.862-3.632 8.862-8.112S35.909 0 31.015 0s-8.861 3.632-8.861 8.113 3.967 8.112 8.861 8.112m55.893 60.547s.157.149.157.298c1.255-.747 1.726-2.39 1.726-2.39 4.708 1.344 5.65-2.84 5.65-2.84.627-1.194-2.512-2.39-2.512-2.39-.157-2.988-3.766-3.885-3.766-3.885-1.726-1.494-1.255 0-1.255 0-1.726-.149-2.825.449-2.825.449-2.825-2.54-4.55 1.345-4.55 1.345-.472 0-.785.149-1.256.149 2.825 3.586 5.806 6.724 8.63 9.264m4.379 9.574c-.815-.757-6.683-4.085-6.683-4.085 1.304-.605 1.467-3.178 1.467-4.085-3.096-2.724-6.356-6.204-9.616-10.138-1.63.303-12.386 4.54-22.817.152-3.912-1.665-7.334.756-7.334.756-2.934 3.178-1.63 8.322-1.63 8.322l4.074-4.085c2.119-1.513 2.934-1.21 3.423-.454.326.605.163 1.362-.326 1.967-3.912 3.782-2.608 7.716-2.608 7.716l-5.541 4.539c-2.119 2.118.326 3.783.326 3.783.489-1.665 4.4-4.237 4.4-4.237-.163 1.967.815 2.42.815 2.42 2.77-.756 2.119-3.328 2.119-3.328 4.4-.151 4.89-1.967 4.89-1.967 4.4.757 6.519-1.966 6.519-1.966 1.14 1.966 11.083 4.085 11.083 4.085.652.302 4.4 7.262 4.4 7.262.815.151 1.63 1.21 1.63 1.21 1.793 1.06 5.541-.15 5.541-.15-.326-1.363-2.282-1.363-2.282-1.363-4.4 0-3.748-6.808-3.748-6.808.163-.908 3.585.756 3.585.756l7.498 2.573c3.748 1.815 5.378-.303 5.378-.303 1.141-1.664-4.563-2.572-4.563-2.572m-36.64-53.304c3.723 7.533 11.654 22.451 21.85 34.564.486-.148 1.133-.148 1.78-.296-.16-.148-.323-.295-.485-.59-10.196-11.965-18.127-26.884-21.688-34.27-.648.444-1.295.591-1.457.591"/><path d="M55.441 31.3c1.63-.598 2.606-2.245 1.955-3.741-.652-1.497-2.443-2.395-4.072-1.796l-8.797 2.843c-10.262-8.83-10.75-10.327-14.823-10.926-5.213-.749-10.1 2.694-10.914 7.484L14.88 50.31c-.814 4.79 2.933 9.28 8.145 10.029h.489l4.235 11.675-8.633 11.675c-1.466 1.946-.977 4.79 1.303 6.137 2.118 1.347 5.213.898 6.679-1.198l10.1-13.471c.813-1.197 1.14-2.544.65-3.892l-5.375-14.818c.815-1.048 1.466-2.395 1.63-3.742l3.583-22.302 4.072 3.592a3.19 3.19 0 0 0 3.258.599z"/></symbol>
  <symbol id="service4" viewBox="0 0 96 96"><path d="M68.316 44.757a9.96 9.96 0 0 0-3.74-4.479c-1.198-.772-5.837-1.39-5.986 2.934 0 0-1.946.31-1.796 1.7 0 0-1.197 4.17 4.489 3.706 0 0 1.047 7.876 1.945 9.575 0 0 .45 1.544.599 3.089h2.394l.15-3.089s1.347.927 2.394 3.089h3.442c-.15-1.236-.3-2.317-.599-3.089 0 0 5.088 0 6.884-2.316 0 0 1.496 2.934 3.292 3.088v2.471h2.394c.15-.463.15-.926.3-1.699 0 0 .897.464 1.346 1.7h2.095c-.3-1.082-2.993-11.12-3.89-11.893 0 0 1.346-.154 1.795 1.545 0 0 .748 3.552 2.245 3.398 0 0 1.047-2.317-.748-5.251 0 0-.749-2.163-4.64-1.854l-11.222-.309a4.6 4.6 0 0 1-3.143-2.316M54.699 32.865c.898-1.236.748-3.09-.45-4.17-1.196-.927-2.992-.772-4.04.463-2.843 3.707-7.93 4.324-11.522 2.78l-1.945 5.56c6.135 2.47 13.617 1.235 17.957-4.633m-25.439-9.73c4.05 0 7.332-3.388 7.332-7.567S33.31 8 29.26 8s-7.333 3.388-7.333 7.568 3.283 7.567 7.333 7.567"/><path d="m33.6 62.98-6.286-2.625 3.741-10.965c-8.38-4.788-11.372-12.355-11.522-12.819-.898-2.316.15-4.787 2.394-5.714s4.64.155 5.537 2.471c.15.309 1.945 4.325 6.584 7.568l2.843-8.031c.3-.927.15-1.854-.448-2.626-5.387-6.177-11.672-8.494-18.556-6.332-1.945.618-3.292 2.162-3.741 4.17L8.16 60.201v.926l.3 14.672-3.293-.772C2.923 74.564.53 76.108.08 78.425c-.45 2.316 1.047 4.787 3.292 5.25l8.53 1.854q2.02.463 3.59-.927c1.048-.926 1.647-2.162 1.497-3.552l-.3-15.444 10.925 4.479V83.52c0 2.471 1.945 4.479 4.34 4.479s4.339-2.008 4.339-4.479V67.15c.15-1.854-1.048-3.398-2.694-4.17"/><path d="M45.122 46.147c-14.216-1.081-18.705-11.738-18.855-12.201-.599-1.544-2.245-2.162-3.741-1.544-1.497.617-2.095 2.316-1.497 3.86.3.618 5.986 14.518 23.793 15.908 1.646.154 2.993-1.081 2.993-2.78s-1.047-3.089-2.693-3.243M70.71 26.07c-2.992.617-5.237 3.397-5.237 6.64h13.318c0-3.552-2.544-6.332-5.836-6.795-4.49-5.096-11.672-3.089-17.358 2.008.299.309.598.772.898 1.235 4.04-3.86 9.577-6.486 14.215-3.088m22.746 36.602h-42.05c-1.196 0-2.244 1.08-2.244 2.316s1.048 2.317 2.245 2.317h.449v3.861c0 6.023 4.788 10.965 10.624 10.965h20.202c5.836 0 10.624-4.942 10.624-10.965v-3.861h.45c1.197 0 2.244-1.081 2.244-2.317-.3-1.39-1.347-2.316-2.544-2.316M66.67 35.8l.15-1.39c0-.464-.15-.773-.599-.773s-.748.154-.748.618l-.15 1.39c0 .463.15.772.599.772.3 0 .599-.309.748-.618m-1.796 1.854-.15 1.39c0 .463.15.772.6.772.448 0 .748-.155.748-.618l.15-1.39c0-.463-.15-.772-.6-.772-.299 0-.598.309-.748.618m5.088-1.236c.449 0 .748-.309.748-.772V34.1c0-.463-.299-.772-.748-.772s-.748.309-.748.772v1.545c0 .309.449.772.748.772m-.898 2.78c0 .463.3.772.749.772.448 0 .748-.309.748-.772v-1.545c0-.463-.3-.772-.748-.772-.45 0-.749.31-.749.772zm4.939-5.714c-.45 0-.749.309-.749.772v1.544c0 .464.3.773.749.773.448 0 .748-.31.748-.773v-1.544c0-.463-.3-.772-.748-.772m-.449 4.324v1.544c0 .464.299.773.748.773s.748-.31.748-.773v-1.544c0-.463-.3-.772-.748-.772-.599 0-.898.309-.748.772m4.339-4.324c-.449 0-.598.463-.598.772l.15 1.39c0 .309.299.618.748.618.448 0 .748-.464.748-.927l-.3-1.236c0-.463-.449-.772-.748-.617m-.149 4.478.15 1.39c0 .31.448.618.748.618.449 0 .748-.463.598-.772v-1.544c0-.464-.449-.618-.748-.618-.449.154-.748.463-.748.926"/></symbol>
</svg>