<svg xmlns="http://www.w3.org/2000/svg" style="display:none">
  <symbol id="arrow_" viewBox="0 0 64 46" fill="currentColor"><path d="M12.11 37.299c2.082-13.677 13.447-24.802 25.02-24.785.068.35.22.79.11 1.128-1.866 5.753.622 10.219 4.654 14.175 3.104 3.123 6.688 5.671 10.971 6.968 1.226.334 2.453.668 3.783.75 4.874.384 7.437-2.22 7.194-6.98-.16-3.203-1.6-5.879-3.587-8.33-3.39-4.262-7.824-7.466-13.031-9.683a204 204 0 0 1-3.564-1.425C48.714 3.645 55.555 2.424 62.1.236c-1.153-.07-2.296-.313-3.46-.212-6.022.926-11.653 2.74-16.174 6.777-1.315 1.127-2.521 1.916-4.473 1.797-7.545-.375-13.866 2.517-19.164 7.629A39 39 0 0 0 9.733 29.56a115 115 0 0 1-1.97 4.539A7332 7332 0 0 0 1.12 23.34c-.271.07-.548.226-.82.296-.13.682-.449 1.525-.22 2.143 1.064 2.998 2.127 5.997 3.373 8.92 1.173 2.66 2.53 5.245 3.702 7.905 1.178 2.574 2.56 3.262 4.373 1.302 3.142-3.345 5.946-6.97 8.838-10.589.387-.494.09-1.461.048-2.24-.897.117-2.045-.039-2.61.444-1.977 1.777-3.606 3.662-5.695 5.778m28.668-24.735c8.604 1.993 15.105 6.359 18.994 14.102.788 1.688 1.371 3.794-.304 4.986-1.118.794-3.257.836-4.754.572-5.714-1.212-9.96-4.577-13.429-9.017-2.388-3.166-2.987-6.48-.507-10.643"/></symbol>
  <symbol id="basket-minus-outline" viewBox="0 0 40 40" fill="currentColor"><g clip-path="url(#a)"><path d="M1.875 16h36.25v-2.667H1.875zm35.458-.792v1.17H40v-1.17zM33.03 37.333H6.971V40h26.058zM2.667 16.38v-1.171H0v1.17zm5.056 21.418A47.9 47.9 0 0 1 2.667 16.38H0c0 7.85 1.827 15.592 5.339 22.613zm-.752-.464c.32 0 .61.182.752.464l-2.384 1.195A1.83 1.83 0 0 0 6.97 40zm25.306.464a.84.84 0 0 1 .752-.464V40a1.82 1.82 0 0 0 1.632-1.008zm5.056-21.418a47.9 47.9 0 0 1-5.056 21.418l2.384 1.195A50.56 50.56 0 0 0 40 16.379zm.792-.38a.79.79 0 0 1-.792-.791H40a1.874 1.874 0 0 0-1.875-1.875zm-36.25-2.666A1.875 1.875 0 0 0 0 15.208h2.667a.79.79 0 0 1-.792.792zm8.602 2.019 8-13.333-2.29-1.371-8 13.333zM21.523 2.019l8 13.333 2.288-1.37-8-13.334zm-8.19 24.648h13.334V24H13.333z"/></g><defs><clipPath id="a"><path d="M0 0h40v40H0z"/></clipPath></defs></symbol>
  <symbol id="dog-lapa" viewBox="0 0 55 56" fill="currentColor"><path d="M26.652 27.235c-4.524 1.004-4.932 5.273-8.504 9.834-5.128 6.67-3.297 11.326.548 11.63 3.846.303 6.324-4.388 10.434-4.926 4.012-.791 7.793 2.76 11.28 1.016 3.538-1.617 3.905-6.748-2.924-11.227-4.578-2.926-6.29-6.9-10.834-6.327M14.078 25.63c2.964 3.246 3.925 7.479 2.167 9.446-1.879 2.017-5.788 1.018-8.752-2.228-2.964-3.245-3.925-7.478-2.167-9.445 1.88-2.017 5.788-1.018 8.752 2.227m22.698-3.73c-1.93 3.94-1.463 8.08.914 9.332s5.915-.816 7.845-4.758c1.93-3.941 1.463-8.08-.914-9.332-2.503-1.201-6.04.868-7.845 4.757m-13.522-5.991c1.573 4.372.526 8.769-2.162 9.735-2.689.966-6.14-1.864-7.713-6.237s-.526-8.77 2.163-9.735c2.688-.966 6.139 1.864 7.712 6.237m2.598-.973c-.105 4.412 2.101 7.863 4.794 7.87 2.814-.044 5.12-3.54 5.273-7.83.106-4.412-2.1-7.863-4.793-7.87-2.74-.128-5.168 3.418-5.274 7.83"/></symbol>
  <symbol id="paw-1" viewBox="0 0 53 53" fill="currentColor"><path d="M24.946 25.84c2.745 3.752 6.712 1.968 12.212 3.124 8.032 1.546 11.19-2.38 9.714-6.196-1.429-3.66-6.451-3.768-8.907-7.098s-1.14-8.555-4.14-11.025-7.507-.342-8.318 8.15c-.493 5.819-3.159 9.245-.561 13.045m4.266 11.047c1.161-4.11 4.3-6.984 6.814-6.09s3.734 4.924 2.473 9.236c-1.161 4.11-4.3 6.984-6.814 6.09s-3.587-4.97-2.473-9.236M16.035 18.54c4.153.027 7.412-2.372 7.344-5.232s-3.474-5.161-7.58-5.034c-4.153-.027-7.412 2.372-7.344 5.233.022 2.705 3.427 5.006 7.58 5.033m.325 15.263c3.108-3.345 7.362-4.539 9.455-2.523 2.093 2.017 1.298 6.468-1.81 9.813s-7.363 4.539-9.456 2.523c-1.943-2.065-1.25-6.315 1.811-9.813m-1.218-2.199c3.984-2.108 6.317-5.853 4.992-8.595-1.278-2.59-5.546-3.057-9.68-.901-3.983 2.108-6.316 5.854-4.992 8.595 1.279 2.59 5.697 3.01 9.68.901"/></symbol>
  <symbol id="Paw-2" viewBox="0 0 55 56" fill="currentColor"><path d="M26.652 27.235c-4.524 1.004-4.932 5.273-8.504 9.834-5.128 6.67-3.297 11.326.548 11.63 3.846.303 6.324-4.388 10.434-4.926 4.012-.791 7.793 2.76 11.28 1.016 3.538-1.617 3.905-6.748-2.924-11.227-4.578-2.926-6.29-6.9-10.834-6.327M14.078 25.63c2.964 3.246 3.925 7.479 2.167 9.446-1.879 2.017-5.788 1.018-8.752-2.228-2.964-3.245-3.925-7.478-2.167-9.445 1.88-2.017 5.788-1.018 8.752 2.227m22.698-3.73c-1.93 3.94-1.463 8.08.914 9.332s5.915-.816 7.845-4.758c1.93-3.941 1.463-8.08-.914-9.332-2.503-1.201-6.04.868-7.845 4.757m-13.522-5.991c1.573 4.372.526 8.769-2.162 9.735-2.689.966-6.14-1.864-7.713-6.237s-.526-8.77 2.163-9.735c2.688-.966 6.139 1.864 7.712 6.237m2.598-.973c-.105 4.412 2.101 7.863 4.794 7.87 2.814-.044 5.12-3.54 5.273-7.83.106-4.412-2.1-7.863-4.793-7.87-2.74-.128-5.168 3.418-5.274 7.83"/></symbol>
  <symbol id="Paw-3" viewBox="0 0 59 60" fill="currentColor"><path d="M28.797 28.44c-2.47-4.004-6.6-3.004-12.08-4.904-7.983-2.73-11.633.595-10.517 4.418 1.016 3.74 6.28 4.657 8.177 8.338 2.148 3.572.191 8.326 3.05 11.217 2.759 2.807 7.568 1.58 9.358-6.517 1.16-5.425 4.33-8.356 2.012-12.552M26.17 16.913c-1.608 3.906-5.064 5.932-7.622 4.732s-3.313-5.504-1.606-9.325c1.607-3.906 4.964-6.017 7.622-4.732s3.212 5.419 1.605 9.325M37.373 37.14c-4.236-.741-7.778.989-8.008 3.783s3.054 5.564 7.265 6.127c4.236.742 7.779-.988 8.009-3.782s-3.055-5.564-7.266-6.128m1.417-15.085c-3.35 2.695-7.693 2.974-9.754.606s-.915-6.607 2.435-9.301 7.693-2.974 9.754-.605c2.06 2.368.914 6.606-2.435 9.3m1.34 1.892c-4.217 1.266-6.637 4.514-5.508 7.333 1.13 2.819 5.371 4.063 9.588 2.797s6.637-4.514 5.508-7.333c-1.13-2.819-5.371-4.063-9.588-2.797"/></symbol>
</svg>