<svg width="201" height="156" viewBox="0 0 201 156" fill="none" xmlns="http://www.w3.org/2000/svg">
<g clip-path="url(#clip0_127_352)">
<path d="M40.1797 122.309C46.427 81.2781 79.751 48.196 114.473 48.2476C114.676 49.2953 115.614 50.2668 115.285 51.282C109.689 68.5402 117.524 82.0775 129.62 93.9464C138.931 103.316 149.379 110.952 162.23 114.844C165.909 115.845 169.04 117.25 173.032 117.494C187.653 118.646 196.007 110.249 195.277 95.9692C194.796 86.3632 189.784 78.7429 183.823 71.3902C173.652 58.6038 160.368 48.787 144.747 42.1382C141.617 40.9115 138.496 39.3293 134.067 37.5056C149.227 21.0908 169.87 17.6099 189.504 11.0451C186.045 10.8336 183.066 10.1339 179.575 10.4382C161.508 13.2164 144.02 19.2029 130.458 31.3153C126.512 34.6977 123.041 36.8317 117.186 36.4739C94.5498 35.3493 75.9009 43.5135 60.005 58.848C48.087 70.2844 38.9045 83.817 32.6364 98.9635C31.0693 102.75 29.5968 106.495 26.8234 112.538C19.5331 100.704 13.1766 90.6953 6.8562 80.4736C6.04207 80.6827 5.62382 81.1344 4.80969 81.3435C4.41749 83.3901 2.70459 86.3677 3.39265 88.2216C6.58256 97.2166 9.99516 105.953 13.7331 114.722C17.2522 122.702 21.7292 130.33 25.2482 138.31C28.7831 146.032 32.5404 147.953 37.975 142.073C47.4033 132.037 56.1212 121.737 64.7984 110.879C65.9575 109.397 65.3468 106.277 65.2225 103.94C62.5297 104.293 58.8489 103.987 57.1576 105.437C51.2223 110.768 46.4442 115.962 40.1797 122.309ZM125.457 47.9239C151.269 53.9015 171.003 66.993 182.672 90.224C185.034 95.2861 186.79 101.518 181.763 105.093C178.412 107.476 172.172 108.009 167.68 107.217C150.539 103.581 137.895 93.2052 127.49 79.8868C120.324 70.3899 118.015 60.4104 125.457 47.9239Z" fill="#FFAA00"/>
</g>
<defs>
<clipPath id="clip0_127_352">
<rect width="192" height="144" fill="white" transform="matrix(-0.998138 -0.0610034 -0.0610034 0.998138 200.427 11.7127)"/>
</clipPath>
</defs>
</svg>
