<svg width="67" height="52" viewBox="0 0 67 52" fill="none" xmlns="http://www.w3.org/2000/svg">
<g clip-path="url(#clip0_125_644)">
<path d="M13.2813 40.8275C15.3637 27.1507 26.7284 16.0256 38.3025 16.0427C38.3702 16.392 38.5214 16.8326 38.4117 17.171C36.5464 22.9237 39.0337 27.3895 43.0658 31.3458C46.1694 34.4688 49.7533 37.0173 54.037 38.3144C55.2631 38.6482 56.4893 38.9819 57.8199 39.0633C62.6936 39.4474 65.2569 36.8432 65.0136 32.0832C64.8531 28.8812 63.4139 26.205 61.4268 23.7541C58.0366 19.492 53.6024 16.2876 48.3955 14.0713C47.352 13.6625 46.3085 13.2536 44.832 12.6457C49.8855 7.17409 56.7271 5.953 63.2718 3.76472C62.1185 3.69424 60.9758 3.45185 59.8121 3.55328C53.7899 4.47935 48.1586 6.29207 43.6379 10.3295C42.3225 11.457 41.1167 12.2461 39.1651 12.1268C31.6197 11.7519 25.2992 14.6441 20.0005 19.7556C16.0279 23.5677 12.9942 28.0412 10.9049 33.09C10.3825 34.3522 9.86019 35.6144 8.93574 37.6285C6.50563 33.6839 4.39883 30.2767 2.29204 26.8695C2.02066 26.9391 1.74402 27.0948 1.47265 27.1645C1.34191 27.8467 1.02326 28.69 1.25261 29.3079C2.31591 32.3063 3.37922 35.3046 4.6252 38.2279C5.79822 40.8878 7.15393 43.4726 8.32695 46.1326C9.50524 48.7066 10.8878 49.395 12.6993 47.4351C15.8421 44.0899 18.6458 40.4652 21.5382 36.8458C21.9245 36.3518 21.6275 35.3846 21.5861 34.6056C20.6885 34.7233 19.5405 34.5668 18.9767 35.05C16.9983 36.8272 15.3694 38.712 13.2813 40.8275ZM41.9501 16.0931C50.5542 18.0857 57.0544 22.4516 60.9441 30.1953C61.7313 31.8826 62.3149 33.9889 60.6394 35.1806C59.5223 35.9751 57.3828 36.0169 55.8853 35.7528C50.1718 34.5409 45.9255 31.1754 42.4571 26.736C40.0685 23.5704 39.4697 20.2553 41.9501 16.0931Z" fill="#FCB62A"/>
</g>
<defs>
<clipPath id="clip0_125_644">
<rect width="64" height="48" fill="white" transform="matrix(-0.998138 -0.0610034 -0.0610034 0.998138 66.809 3.90422)"/>
</clipPath>
</defs>
</svg>
