<svg width="64" height="46" viewBox="0 0 64 46" fill="none" xmlns="http://www.w3.org/2000/svg">
<path d="M12.1094 37.2986C14.1919 23.6219 25.5566 12.4967 37.1307 12.5139C37.1984 12.8631 37.3495 13.3037 37.2398 13.6421C35.3745 19.3949 37.8618 23.8606 41.894 27.8169C44.9976 30.94 48.5815 33.4884 52.8651 34.7855C54.0913 35.1193 55.3175 35.4531 56.6481 35.5344C61.5218 35.9186 64.085 33.3144 63.8417 28.5544C63.6812 25.3524 62.2421 22.6762 60.2549 20.2253C56.8648 15.9631 52.4306 12.7588 47.2236 10.5425C46.1801 10.1336 45.1367 9.72472 43.6601 9.11683C48.7136 3.64523 55.5553 2.42414 62.0999 0.235871C60.9467 0.16539 59.804 -0.0770002 58.6403 0.0244275C52.618 0.950494 46.9868 2.76321 42.4661 6.80069C41.1506 7.92815 39.9449 8.71721 37.9933 8.59793C30.4478 8.22305 24.1273 11.1152 18.8287 16.2267C14.856 20.0389 11.8224 24.5123 9.73303 29.5612C9.21069 30.8234 8.68835 32.0856 7.76389 34.0997C5.33378 30.1551 3.22699 26.7478 1.12019 23.3406C0.848814 23.4103 0.57218 23.5659 0.300802 23.6356C0.170067 24.3178 -0.148586 25.1611 0.0807647 25.7791C1.14407 28.7774 2.20737 31.7758 3.45335 34.699C4.62638 37.359 5.98208 39.9438 7.15511 42.6038C8.33339 45.1777 9.71595 45.8662 11.5275 43.9063C14.6703 40.5611 17.4739 36.9363 20.3663 33.317C20.7527 32.8229 20.4556 31.8557 20.4142 31.0767C19.5166 31.1944 18.3687 31.038 17.8049 31.5212C15.8265 33.2983 14.1976 35.1831 12.1094 37.2986ZM40.7782 12.5643C49.3824 14.5568 55.8825 18.9227 59.7722 26.6664C60.5595 28.3538 61.1431 30.4601 59.4675 31.6518C58.3505 32.4463 56.211 32.4881 54.7135 32.224C48.9999 31.012 44.7536 27.6466 41.2853 23.2071C38.8966 20.0415 38.2979 16.7264 40.7782 12.5643Z" fill="#FCB62A"/>
</svg>
