<svg width="32" height="32" viewBox="0 0 32 32" fill="none" xmlns="http://www.w3.org/2000/svg">
<path d="M6.46666 29.3333V16.5333L6.09999 16.1666C5.85555 15.9222 5.66666 15.6333 5.53333 15.3C5.4 14.9666 5.33333 14.6222 5.33333 14.2666C5.33333 13.9111 5.4 13.5724 5.53333 13.2506C5.66666 12.928 5.85555 12.6444 6.09999 12.4L10.4667 7.99996H15.8L21.1333 2.66663L23.8667 5.39996C24.7555 6.28885 25.4444 7.29418 25.9333 8.41596C26.4222 9.53863 26.6667 10.7333 26.6667 12C26.6667 13.2666 26.4222 14.4613 25.9333 15.584C25.4444 16.7057 24.7555 17.7111 23.8667 18.6L21.1333 21.3333V29.3333H6.46666ZM9.13333 26.6666H18.4667V20.2333L21.9667 16.7333C22.6111 16.0888 23.1111 15.3666 23.4667 14.5666C23.8222 13.7666 24 12.9111 24 12C24 11.1111 23.8164 10.2666 23.4493 9.46663C23.0831 8.66663 22.5889 7.9444 21.9667 7.29996L21.1333 6.43329L16.9 10.6666H11.5667L10.8 11.4333L13.0333 13.6666C13.6555 14.2888 14.1391 15.0053 14.484 15.816C14.828 16.6275 15 17.4777 15 18.3666C15 19.2555 14.8333 20.1057 14.5 20.9173C14.1667 21.728 13.6778 22.4555 13.0333 23.1L9.13333 19.2V26.6666Z" fill="#FF9F0E"/>
</svg>
