<svg width="72" height="48" viewBox="0 0 72 48" fill="none" xmlns="http://www.w3.org/2000/svg">
<path d="M68.0807 20.105C68.0635 20.0352 68.0543 19.9638 68.0507 19.892C67.9143 17.1263 65.3336 14.3832 60.2368 12.3904C59.678 12.1719 59.4279 11.4921 59.303 10.9053C59.2505 10.6586 59.1781 10.3873 59.1781 10C59.1781 6.46642 56.1058 3 52.274 3C51.6572 3 51.3261 3.36149 50.8939 3.67423C50.562 3.9143 50.1289 3.79079 49.8122 3.53103C48.4658 2.42658 46.3865 2 44.3836 2C43.5614 2 42.753 1.77708 41.9872 1.86689C41.6313 1.90863 41.2571 1.85501 40.9661 1.64575C39.4366 0.545853 37.5903 0 35.5068 0C32.6354 0 29.6244 1.56218 27.9761 3.53271C27.7424 3.812 27.3914 3.97286 27.0283 3.94571C23.9157 3.71302 21.329 4.41226 20.0255 6.45846C19.8218 6.77825 19.4852 6.99742 19.1086 7.04143C16.5725 7.33781 14.5277 9.15157 13.9326 11.3891C13.8345 11.758 13.5776 12.0737 13.2165 12.1974C7.31378 14.2178 4.10789 16.9061 3.94981 19.8841C3.94573 19.961 3.93532 20.0376 3.91573 20.1121L0.032891 34.8749C0.0110545 34.958 0 35.0435 0 35.1293V36C0 42.9729 16.3059 48 36.4932 48C56.5616 48 71.8207 43.0306 71.9984 36.1221C72.0005 36.0414 71.9902 35.9604 71.9709 35.8821L68.0807 20.105ZM19.726 9C19.6745 8.99669 19.7776 9 19.726 9H19.8664C20.3336 9 20.7123 8.62127 20.7123 8.15409C20.7123 8.0522 20.7299 7.95051 20.7695 7.85664C21.6015 5.88468 23.8704 5 26.6301 5C27.0057 5 27.1834 4.94545 27.5492 4.99082C27.594 4.99638 27.6391 5 27.6842 5H28.6027L-nan -nanL-nan -nanL28.6027 5C29.8503 2.98294 32.6843 1 35.5068 1C37.6393 1 39.0361 1.71017 40.4384 3L40.8712 3.43888C41.0742 3.6447 41.4247 3.50095 41.4247 3.21187C41.4247 3.08321 41.5003 2.96437 41.6236 2.92733C42.4555 2.67723 43.4621 3 44.3836 3C46.4505 3 48.309 3.63654 49.3151 5L-nan -nanL-nan -nanL49.3151 5H50.1312C50.2434 5 50.354 4.97448 50.4601 4.93789C51.132 4.70619 51.4819 5 52.274 5C55.4092 5 58.1918 7.17297 58.1918 10C58.1918 10.9275 57.7294 11.2082 57.2055 12L-nan -nanL-nan -nanL57.2055 12C57.2038 12.0017 57.2071 12.9975 57.2055 13C57.2472 12.9413 57.1654 13.0596 57.2055 13L-nan -nanL-nan -nanL57.2055 13V14L-nan -nanL-nan -nanL57.2055 14H58.1918C60.668 14.3425 62.137 15.6945 62.137 17C62.137 17.7851 61.6623 17.6467 61.1507 18C61.2227 17.9562 61.0688 18.0563 61.1507 18L60.9375 18.1081C60.2071 18.4784 60.2071 19.5216 60.9375 19.8919L61.1507 20C62.2631 20.5171 62.137 21.1131 62.137 22C62.137 23.3221 59.6211 25 57.2055 25L-nan -nanL-nan -nanL-nan -nanL-nan -nanL57.2055 25C56.1037 25.3773 55.4106 25.6922 54.2466 26C49.3015 27.3022 43.4339 28 37.4795 28C27.2937 28 18.7531 25.7512 15.7808 25C15.0957 24.8271 14.8133 25.0058 14.7945 25L-nan -nanL-nan -nanL14.7945 25C12.0883 25 9.86301 22.4258 9.86301 20C9.86301 17.5742 12.0883 16 14.7945 16C14.6308 15.9843 14.964 16 14.7945 16H14.9834C15.4238 16 15.7808 15.643 15.7808 15.2025C15.7808 15.0696 15.7485 14.9383 15.6795 14.8248C15.3398 14.2658 14.7945 13.5768 14.7945 13C14.7921 13.0372 14.7945 12.9619 14.7945 13L-nan -nanL-nan -nanL14.7945 13C15.0466 10.8423 17.2203 9 19.726 9ZM13.7782 14.0101C13.7935 14.0049 13.8058 13.984 13.8082 14C13.8017 13.9578 13.8139 14.0422 13.8082 14C13.7419 13.7849 13.8451 14.2209 13.8082 14C13.8087 14.0014 13.8067 14.0001 13.8052 14.0002C10.5911 14.1945 7.89041 16.9944 7.89041 20C7.89041 23.0633 11.3408 25.8832 14.6641 25.9969C14.7507 25.9999 14.8382 26.0127 14.9242 26.0014C15.0986 25.9784 15.3722 25.8966 15.7808 26C18.8186 26.7678 27.1652 29 37.4795 29C37.4778 29 37.4811 29 37.4795 29C44.8655 29 51.2065 28.0215 57.0556 26.0508C57.155 26.0173 57.2582 25.9998 57.3631 25.9962C60.2636 25.8985 64.1096 24.2207 64.1096 22C64.1096 21.722 64.1816 21.2647 64.1096 21C63.9837 20.5341 63.5925 20.1178 63.1342 19.7407C62.6412 19.335 62.6493 18.6258 62.926 18.0505C63.0706 17.7498 63.1233 17.4263 63.1233 17C63.1233 16.9379 63.1282 16.0621 63.1233 16C63.1298 16.0496 63.12 15.9479 63.1233 16C63.1347 16.0587 63.1151 15.9396 63.1233 16C63.138 16.0563 63.1118 15.9437 63.1233 16C63.1218 15.9941 63.1321 16.0053 63.1373 16.0084C65.4993 17.4212 67.0685 18.4312 67.0685 20C67.0685 24.7696 53.9874 30 35.5068 30C17.0263 30 4.93151 24.7696 4.93151 20C4.93151 17.534 8.25595 15.8709 13.7782 14.0101ZM35.5068 47C16.9256 47 1.39884 42.1028 0.993538 36.1597C0.986332 36.054 1.00197 35.9484 1.03273 35.847L4.27432 25.1655C4.52654 24.3344 5.72984 24.1458 6.3603 24.7432C10.8051 28.9548 21.6534 32 35.5068 32C49.3772 32 61.0081 28.948 65.6206 24.7269C66.2615 24.1404 67.4737 24.3354 67.726 25.1666L70.9673 35.847C70.998 35.9484 71.0137 36.054 71.0062 36.1596C70.584 42.1035 54.0882 47 35.5068 47Z" fill="#839AA9"/>
<path d="M46.3562 36C46.3562 34.3056 45.0358 33 43.3973 33C42.1277 33 41.0442 33.8836 40.6227 35.0681C40.4438 35.5709 40.0188 36 39.4851 36H31.5281C30.9946 36 30.5697 35.5712 30.3909 35.0686C29.9695 33.8839 28.8868 33 27.6164 33C25.9795 33 24.6575 34.3056 24.6575 36C24.6575 36.4411 24.714 36.7749 24.839 37.0592C25.0969 37.6461 25.1993 38.4406 24.9823 39.0439C24.7565 39.6717 24.6575 40.4166 24.6575 41C24.6575 42.6944 25.9795 44 27.6164 44C28.8866 44 29.9697 43.1164 30.3911 41.9319C30.5699 41.4291 30.9949 41 31.5286 41H39.4856C40.0191 41 40.444 41.4288 40.6229 41.9314C41.0446 43.1161 42.1282 44 43.3973 44C45.0358 44 46.3562 42.6944 46.3562 41C46.3562 40.4163 46.2564 39.6702 46.0298 39.0416C45.8127 38.4394 45.9146 37.6471 46.1733 37.0615C46.2991 36.7768 46.3562 36.4424 46.3562 36ZM45.3699 41C45.3699 41.9868 44.3515 43 43.3973 43C42.4446 43 41.4247 41.9868 41.4247 41C41.4247 40.9535 41.4211 40.9617 41.4181 40.9817C41.4096 41.04 41.4247 40.9704 41.4247 40.9115C41.4247 40.4081 41.0166 40 40.5132 40H30.5005C29.9971 40 29.589 40.4081 29.589 40.9115C29.589 40.9704 29.6041 41.04 29.5956 40.9817C29.5926 40.9617 29.589 40.9535 29.589 41C29.589 41.9868 28.5707 43 27.6164 43C26.6629 43 25.6438 41.9868 25.6438 41C25.6438 40.1837 26.3435 39.347 27.1258 39.0842C27.3876 38.9962 27.6164 38.7761 27.6164 38.5C27.6164 38.2239 27.3876 38.0038 27.1258 37.9158C26.3435 37.653 25.6438 36.8163 25.6438 36C25.6438 35.0132 26.6629 34 27.6164 34C28.5707 34 29.589 35.0132 29.589 36C29.589 36.0474 29.5927 36.039 29.5956 36.0186C29.6041 35.9604 29.589 36.0296 29.589 36.0885C29.589 36.5919 29.9971 37 30.5005 37H40.5121C41.0161 37 41.4247 36.5914 41.4247 36.0874C41.4247 36.0293 41.4099 35.9583 41.4179 36.0159C41.4209 36.0374 41.4247 36.0479 41.4247 36C41.4247 35.0132 42.4446 34 43.3973 34C44.3515 34 45.3699 35.0132 45.3699 36C45.3699 36.8165 44.6704 37.6533 43.8877 37.916C43.626 38.0038 43.3973 38.2238 43.3973 38.4998C43.3973 38.776 43.6263 38.996 43.8882 39.0837C44.6711 39.346 45.3699 40.1829 45.3699 41Z" fill="#839AA9"/>
</svg>
