<svg width="53" height="53" viewBox="0 0 53 53" fill="none" xmlns="http://www.w3.org/2000/svg">
<path d="M24.946 25.8396C27.6907 29.5924 31.6577 27.8083 37.1577 28.964C45.1901 30.51 48.348 26.5835 46.8719 22.7678C45.4431 19.1085 40.4209 19.0005 37.9649 15.6699C35.5089 12.3394 36.8257 7.11529 33.8252 4.64508C30.8247 2.17486 26.318 4.3032 25.507 12.7959C25.0136 18.614 22.3481 22.0399 24.946 25.8396Z" fill="#FCB62A"/>
<path d="M29.2119 36.8873C30.3732 32.7771 33.5115 29.9034 36.0264 30.7979C38.5412 31.6925 39.7598 35.7209 38.4993 40.0329C37.338 44.1431 34.1996 47.0168 31.6848 46.1223C29.1699 45.2277 28.0975 41.1525 29.2119 36.8873Z" fill="#FCB62A"/>
<path d="M16.0353 18.5403C20.1881 18.5675 23.4474 16.1681 23.3793 13.3079C23.3111 10.4476 19.9053 8.14694 15.7992 8.27425C11.6464 8.247 8.38701 10.6463 8.45518 13.5066C8.47659 16.2123 11.8824 18.513 16.0353 18.5403Z" fill="#FCB62A"/>
<path d="M16.3603 33.8026C19.4685 30.4575 23.7221 29.2642 25.8152 31.2804C27.9084 33.2967 27.1126 37.7485 24.0043 41.0935C20.896 44.4386 16.6425 45.632 14.5493 43.6157C12.6064 41.5514 13.2983 37.3008 16.3603 33.8026Z" fill="#FCB62A"/>
<path d="M15.1423 31.6042C19.1259 29.4963 21.4588 25.7507 20.1343 23.0089C18.8558 20.419 14.5884 19.9519 10.4543 22.108C6.47068 24.216 4.13778 27.9616 5.46228 30.7034C6.74082 33.2932 11.1587 33.7122 15.1423 31.6042Z" fill="#FCB62A"/>
</svg>
