<svg width="55" height="56" viewBox="0 0 55 56" fill="none" xmlns="http://www.w3.org/2000/svg">
<path d="M26.6521 27.2354C22.1281 28.239 21.72 32.508 18.1476 37.0685C13.0203 43.7399 14.8509 48.3952 18.6964 48.6987C22.5419 49.0021 25.0198 44.3113 29.1303 43.7725C33.1419 42.982 36.923 46.5331 40.4107 44.7894C43.9479 43.1715 44.3153 38.0411 37.4864 33.5619C32.9076 30.6355 31.1963 26.6626 26.6521 27.2354Z" fill="#D9A6FF"/>
<path d="M14.0781 25.6303C17.0421 28.8759 18.0034 33.109 16.2452 35.0759C14.366 37.0931 10.457 36.0939 7.49301 32.8483C4.52904 29.6027 3.56776 25.3696 5.32599 23.4027C7.20509 21.3855 11.1142 22.3847 14.0781 25.6303Z" fill="#D9A6FF"/>
<path d="M36.7758 21.8993C34.8453 25.8405 35.3128 29.9796 37.6904 31.2321C40.068 32.4845 43.6047 30.4155 45.5351 26.4743C47.4656 22.533 46.9981 18.3939 44.6205 17.1415C42.1183 15.9409 38.5817 18.0099 36.7758 21.8993Z" fill="#D9A6FF"/>
<path d="M23.254 15.9075C24.8273 20.2802 23.7801 24.6767 21.0917 25.6428C18.4033 26.6088 14.9527 23.7787 13.3794 19.406C11.8061 15.0332 12.8534 10.6367 15.5418 9.67064C18.2302 8.70459 21.6807 11.5347 23.254 15.9075Z" fill="#D9A6FF"/>
<path d="M25.8524 14.935C25.7469 19.3471 27.9531 22.7976 30.6456 22.8047C33.4598 22.7613 35.7659 19.2655 35.919 14.9746C36.0245 10.5625 33.8184 7.11205 31.1258 7.10489C28.3856 6.97663 25.9579 10.523 25.8524 14.935Z" fill="#D9A6FF"/>
</svg>
