<svg width="59" height="60" viewBox="0 0 59 60" fill="none" xmlns="http://www.w3.org/2000/svg">
<path d="M28.7966 28.4402C26.3261 24.4356 22.1974 25.4363 16.717 23.5361C8.73377 20.8059 5.08356 24.1314 6.19976 27.9545C7.21637 31.6936 12.4807 32.6112 14.3769 36.2916C16.5253 39.8645 14.5682 44.6179 17.4268 47.5089C20.1857 50.316 24.9948 49.0885 26.785 40.9925C27.9454 35.5671 31.1144 32.6364 28.7966 28.4402Z" fill="#FF6E9F"/>
<path d="M26.1695 16.9127C24.5625 20.8185 21.1056 22.8453 18.5477 21.6446C15.9898 20.4439 15.2353 16.1409 16.9424 12.3196C18.5494 8.41381 21.9062 6.3026 24.5642 7.58769C27.2222 8.87277 27.7765 13.007 26.1695 16.9127Z" fill="#FF6E9F"/>
<path d="M37.3729 37.1404C33.1372 36.3988 29.5945 38.1286 29.3646 40.9226C29.1348 43.7166 32.4193 46.4866 36.6304 47.0503C40.8662 47.7919 44.4089 46.062 44.6388 43.268C44.8686 40.474 41.5841 37.704 37.3729 37.1404Z" fill="#FF6E9F"/>
<path d="M38.7897 22.0553C35.4399 24.7498 31.0965 25.0293 29.0359 22.6607C26.9752 20.292 28.1212 16.0544 31.471 13.3598C34.8207 10.6653 39.1641 10.3858 41.2248 12.7545C43.2854 15.1231 42.1394 19.3608 38.7897 22.0553Z" fill="#FF6E9F"/>
<path d="M40.1298 23.947C35.9129 25.213 33.4928 28.4608 34.6221 31.2799C35.7514 34.099 39.9934 35.3431 44.2103 34.0772C48.4271 32.8113 50.8473 29.5634 49.718 26.7443C48.5886 23.9252 44.3467 22.6811 40.1298 23.947Z" fill="#FF6E9F"/>
</svg>
