<svg width="32" height="32" viewBox="0 0 32 32" fill="none" xmlns="http://www.w3.org/2000/svg">
<path d="M27.8333 29.3333C24.3667 29.3333 21.1058 28.6777 18.0507 27.3666C14.9947 26.0555 12.328 24.2613 10.0507 21.984C7.77243 19.7057 5.97243 17.0391 4.65066 13.984C3.32799 10.928 2.66666 7.65551 2.66666 4.16663C2.64443 3.76663 2.77777 3.4164 3.06666 3.11596C3.35555 2.8164 3.7111 2.66663 4.13332 2.66663H9.33332C9.73332 2.66663 10.0778 2.8164 10.3667 3.11596C10.6555 3.4164 10.8 3.77774 10.8 4.19996C10.8 5.17774 10.8667 6.09996 11 6.96663C11.1333 7.83329 11.3444 8.65551 11.6333 9.43329C11.7444 9.67774 11.7667 9.92751 11.7 10.1826C11.6333 10.4386 11.5 10.6777 11.3 10.9L7.96666 14.2333C8.92221 16.1888 10.2778 18.0444 12.0333 19.8C13.7889 21.5555 15.6778 22.9555 17.7 24L21.0333 20.6666C21.2333 20.4666 21.4667 20.3333 21.7333 20.2666C22 20.2 22.2667 20.2222 22.5333 20.3333C23.3555 20.6 24.2053 20.8053 25.0827 20.9493C25.9609 21.0942 26.8667 21.1666 27.8 21.1666C28.2222 21.1666 28.5835 21.3222 28.884 21.6333C29.1835 21.9444 29.3333 22.3222 29.3333 22.7666V27.8666C29.3333 28.2666 29.1889 28.6111 28.9 28.9C28.6111 29.1888 28.2555 29.3333 27.8333 29.3333ZM20.1667 25.3333C21.1667 25.7111 22.2111 26.0111 23.3 26.2333C24.3889 26.4555 25.5111 26.6 26.6667 26.6666V23.8C25.9778 23.7555 25.2724 23.6777 24.5507 23.5666C23.828 23.4555 23.1111 23.2888 22.4 23.0666L20.1667 25.3333ZM26.6667 16C26.6667 13.0222 25.6333 10.5 23.5667 8.43329C21.5 6.36663 18.9778 5.33329 16 5.33329V2.66663C17.8444 2.66663 19.5778 3.0164 21.2 3.71596C22.8222 4.4164 24.2333 5.36663 25.4333 6.56663C26.6333 7.76663 27.5831 9.17774 28.2827 10.8C28.9831 12.4222 29.3333 14.1555 29.3333 16H26.6667ZM21.3333 16C21.3333 14.5333 20.8111 13.2777 19.7667 12.2333C18.7222 11.1888 17.4667 10.6666 16 10.6666V7.99996C18.2222 7.99996 20.1111 8.77774 21.6667 10.3333C23.2222 11.8888 24 13.7777 24 16H21.3333ZM6.66666 11.7666L8.86666 9.53329C8.68888 8.88885 8.53866 8.21107 8.41599 7.49996C8.29421 6.78885 8.2111 6.06663 8.16666 5.33329H5.36666C5.4111 6.39996 5.54443 7.46663 5.76666 8.53329C5.98888 9.59996 6.28888 10.6777 6.66666 11.7666Z" fill="#FF9F0E"/>
</svg>
